<svg width="24" height="24" viewBox="0 0 24 24" fill="none" xmlns="http://www.w3.org/2000/svg">
<path d="M3.99998 11.7257C3.99998 11.346 4.28213 11.0322 4.64821 10.9826L4.74998 10.9757L17.934 10.9763L13.171 6.23278C12.8775 5.94051 12.8764 5.46564 13.1687 5.17212C13.4344 4.90528 13.851 4.88018 14.1451 5.0974L14.2294 5.16983L20.2794 11.1938C20.3181 11.2324 20.3517 11.2741 20.3802 11.3181C20.3882 11.3313 20.3964 11.3449 20.4042 11.3587C20.4114 11.3706 20.4178 11.3829 20.4239 11.3953C20.4324 11.4134 20.4407 11.4322 20.4482 11.4512C20.4543 11.466 20.4594 11.4803 20.464 11.4947C20.4695 11.5126 20.4749 11.5317 20.4795 11.551C20.483 11.5646 20.4857 11.5776 20.4881 11.5906C20.4914 11.6101 20.4942 11.6302 20.4963 11.6505C20.498 11.666 20.4991 11.6814 20.4996 11.6968C20.4998 11.7061 20.5 11.7159 20.5 11.7257L20.4996 11.7548C20.499 11.7695 20.498 11.7842 20.4966 11.7989L20.5 11.7257C20.5 11.773 20.4956 11.8193 20.4872 11.8642C20.4853 11.875 20.4829 11.886 20.4804 11.8969C20.4751 11.9195 20.4689 11.9412 20.4618 11.9626C20.4583 11.9732 20.4543 11.9845 20.4499 11.9957C20.4412 12.0183 20.4317 12.0398 20.4212 12.0607C20.4163 12.0706 20.4109 12.0809 20.4051 12.0911C20.3958 12.1078 20.3861 12.1236 20.3759 12.139C20.3687 12.15 20.3607 12.1613 20.3524 12.1725L20.3459 12.1812C20.3257 12.2075 20.3038 12.2326 20.2803 12.256L20.2794 12.2567L14.2294 18.2817C13.9359 18.574 13.461 18.573 13.1687 18.2795C12.903 18.0127 12.8797 17.596 13.0982 17.3028L13.1709 17.2189L17.932 12.4763L4.74998 12.4757C4.33576 12.4757 3.99998 12.1399 3.99998 11.7257Z" fill="#14181D"/>
</svg>
